<?xml version="1.0" encoding="utf-8"?>
<!-- Generator: Adobe Illustrator 25.0.0, SVG Export Plug-In . SVG Version: 6.00 Build 0)  -->
<svg version="1.1" id="Layer_1" xmlns="http://www.w3.org/2000/svg" xmlns:xlink="http://www.w3.org/1999/xlink" x="0px" y="0px"
	 viewBox="0 0 482 137.8" style="enable-background:new 0 0 482 137.8;" xml:space="preserve">
<style type="text/css">
	.st0{fill:#339999;}
	.st1{fill:#1B305C;}
</style>
<g>
	<g>
		<path class="st0" d="M190.1,12.1v16.1h-31.5v18.7h27.7V63h-27.7v20.2h31.5v16.1h-52.6V12.1H190.1z"/>
		<path class="st0" d="M232.8,27.8c-2.6,0-4.8,0.7-6.5,2.1c-1.7,1.4-2.5,3.4-2.5,6.1c0,2.6,0.8,4.8,2.4,6.4c1.6,1.6,3.6,2.8,6.1,3.7
			c2.5,0.9,5.3,1.7,8.4,2.5c3.1,0.8,6.2,1.7,9.2,2.8c3.1,1.1,5.8,2.5,8.4,4.1c2.5,1.7,4.6,4,6.1,7c1.6,3,2.4,6.6,2.4,10.8
			c0,7.3-3,13.6-9,18.9c-6,5.2-13.9,7.9-23.7,7.9c-9.8,0-17.7-2.4-23.7-7.1c-6-4.7-9-11.4-9-20.1H224c0.6,6.9,4.1,10.4,10.7,10.4
			c3.1,0,5.5-0.8,7.2-2.4c1.7-1.6,2.6-3.7,2.6-6.1s-0.8-4.5-2.4-6.1c-1.6-1.6-3.6-2.8-6.1-3.7c-2.5-0.9-5.3-1.8-8.4-2.5
			c-3.1-0.8-6.2-1.8-9.2-2.9c-3.1-1.2-5.8-2.5-8.4-4.1c-2.5-1.6-4.6-3.9-6.1-6.9c-1.6-3-2.4-6.6-2.4-10.7c0-8.1,3-14.6,9-19.4
			c6-4.9,13.7-7.3,23.1-7.3c9.4,0,16.9,2.1,22.7,6.4c5.8,4.3,8.8,11,9,20.1h-23c-0.3-3.1-1.3-5.6-3-7.2
			C237.6,28.7,235.4,27.8,232.8,27.8z"/>
		<path class="st0" d="M332.8,12.1v16.1h-31.5v18.7h27.7V63h-27.7v20.2h31.5v16.1h-52.6V12.1H332.8z"/>
		<path class="st0" d="M414.3,39c0,5.9-2.1,11.5-6.3,17c-2.2,2.8-5.6,5.1-10,6.9c-4.4,1.8-9.6,2.7-15.7,2.7h-13.1v33.8H348V12.3
			h34.3c10.1,0,17.9,2.6,23.5,7.8C411.5,25.3,414.3,31.6,414.3,39z M369.2,49.4h13.1c3.2,0,5.8-0.9,7.6-2.8c1.9-1.9,2.8-4.4,2.8-7.5
			c0-3.1-1-5.6-2.8-7.6c-1.9-2-4.4-3-7.6-3h-13.1V49.4z"/>
		<path class="st0" d="M475.2,12.1v16.1h-31.5v18.7h27.7V63h-27.7v20.2h31.5v16.1h-52.6V12.1H475.2z"/>
	</g>
	<g>
		<g>
			<polygon class="st0" points="25.7,102 3.4,79.7 14.2,68.9 25.7,80.4 87.7,18.3 98.5,29.1 			"/>
		</g>
		<g>
			<path class="st1" d="M25.7,23.7l67.5,67.5c18.6-18.6,18.6-48.8,0-67.5S44.3,5.1,25.7,23.7z"/>
			<path class="st1" d="M93.1,99.3L17.6,23.7l4-4c20.8-20.8,54.7-20.8,75.6,0c20.8,20.8,20.8,54.7,0,75.6L93.1,99.3z M34,24
				l58.8,58.8c12.5-16.4,11.2-40.1-3.8-55.1C74.1,12.7,50.5,11.5,34,24z"/>
		</g>
	</g>
	<g>
		<path class="st1" d="M148.7,125.2c0.7,0.9,1.1,1.9,1.1,3c0,0.9-0.2,1.8-0.7,2.5c-0.5,0.7-1.2,1.3-2,1.8c-0.9,0.4-2,0.6-3.2,0.6
			h-6.4v-18.5h6.2c1.9,0,3.3,0.4,4.3,1.3c1,0.9,1.5,2,1.5,3.4c0,1.1-0.3,2.1-0.9,2.8c-0.6,0.7-1.4,1.2-2.4,1.5
			C147.1,123.8,148,124.3,148.7,125.2z M139.3,122.9h4.3c1.3,0,2.2-0.3,2.9-0.9c0.7-0.6,1-1.4,1-2.5s-0.3-1.9-1-2.5
			c-0.7-0.6-1.7-0.9-3-0.9h-4.2V122.9z M146.8,130.7c0.7-0.6,1.1-1.5,1.1-2.7c0-1.1-0.4-2-1.2-2.7c-0.8-0.7-1.8-1-3.2-1h-4.3v7.3
			h4.4C145,131.6,146.1,131.3,146.8,130.7z"/>
		<path class="st1" d="M167.2,133.2l-4.6-7.7h-3.4v7.7h-1.9v-18.5h5.6c2.1,0,3.6,0.5,4.7,1.5c1.1,1,1.6,2.3,1.6,3.9
			c0,1.3-0.4,2.5-1.2,3.4c-0.8,0.9-1.9,1.6-3.4,1.8l4.8,7.9H167.2z M159.2,123.9h3.7c1.4,0,2.5-0.4,3.3-1.1c0.7-0.7,1.1-1.7,1.1-2.9
			c0-1.2-0.4-2.2-1.1-2.9c-0.7-0.7-1.8-1-3.3-1h-3.7V123.9z"/>
		<path class="st1" d="M180.1,132.1c-1.4-0.8-2.5-1.9-3.3-3.4c-0.8-1.4-1.2-3.1-1.2-4.9c0-1.8,0.4-3.4,1.2-4.9
			c0.8-1.4,1.9-2.6,3.3-3.4c1.4-0.8,2.9-1.2,4.7-1.2c1.7,0,3.3,0.4,4.7,1.2c1.4,0.8,2.5,1.9,3.3,3.4c0.8,1.4,1.2,3.1,1.2,4.9
			c0,1.8-0.4,3.4-1.2,4.9c-0.8,1.4-1.9,2.6-3.3,3.4c-1.4,0.8-3,1.2-4.7,1.2C183,133.3,181.5,132.9,180.1,132.1z M188.4,130.7
			c1.1-0.6,2-1.5,2.6-2.7c0.6-1.2,1-2.5,1-4.1c0-1.6-0.3-2.9-1-4.1c-0.6-1.2-1.5-2.1-2.6-2.7c-1.1-0.6-2.3-1-3.7-1
			c-1.4,0-2.6,0.3-3.7,1c-1.1,0.6-2,1.5-2.6,2.7c-0.6,1.2-1,2.5-1,4.1c0,1.6,0.3,2.9,1,4.1c0.6,1.2,1.5,2.1,2.6,2.7
			c1.1,0.6,2.3,1,3.7,1C186.1,131.7,187.3,131.4,188.4,130.7z"/>
		<path class="st1" d="M211.1,133.2l-8-8.5v8.5h-1.9v-18.5h1.9v8.7l8-8.7h2.4l-8.7,9.2l8.7,9.3H211.1z"/>
		<path class="st1" d="M221.9,116.1v7h7v1.5h-7v7.1h7.8v1.5H220v-18.5h9.7v1.5H221.9z"/>
		<path class="st1" d="M246.5,133.2l-4.6-7.7h-3.4v7.7h-1.9v-18.5h5.6c2.1,0,3.6,0.5,4.7,1.5c1.1,1,1.6,2.3,1.6,3.9
			c0,1.3-0.4,2.5-1.2,3.4c-0.8,0.9-1.9,1.6-3.4,1.8l4.8,7.9H246.5z M238.5,123.9h3.7c1.4,0,2.5-0.4,3.3-1.1c0.7-0.7,1.1-1.7,1.1-2.9
			c0-1.2-0.4-2.2-1.1-2.9c-0.7-0.7-1.8-1-3.3-1h-3.7V123.9z"/>
		<path class="st1" d="M258.3,132.7c-0.9-0.4-1.7-1-2.2-1.8c-0.5-0.8-0.8-1.6-0.8-2.5h2c0.1,0.9,0.5,1.7,1.2,2.4
			c0.7,0.7,1.7,1,3.1,1c1.3,0,2.2-0.3,3-1c0.7-0.7,1.1-1.5,1.1-2.5c0-0.8-0.2-1.4-0.6-1.9c-0.4-0.5-0.9-0.8-1.5-1.1
			c-0.6-0.2-1.4-0.5-2.5-0.8c-1.2-0.3-2.2-0.7-2.9-1s-1.3-0.8-1.9-1.5c-0.5-0.7-0.8-1.6-0.8-2.7c0-1,0.2-1.8,0.7-2.6
			c0.5-0.7,1.2-1.3,2.1-1.8c0.9-0.4,1.9-0.6,3.1-0.6c1.7,0,3.1,0.4,4.1,1.3c1,0.8,1.7,1.9,1.8,3.2h-2c-0.1-0.8-0.5-1.5-1.2-2.1
			c-0.7-0.6-1.7-0.9-2.9-0.9c-1.1,0-2,0.3-2.8,0.9c-0.7,0.6-1.1,1.4-1.1,2.5c0,0.8,0.2,1.4,0.6,1.9c0.4,0.5,0.9,0.8,1.5,1.1
			c0.6,0.2,1.4,0.5,2.5,0.8c1.2,0.3,2.2,0.7,2.9,1c0.7,0.3,1.4,0.8,1.9,1.5c0.5,0.7,0.8,1.6,0.8,2.7c0,0.9-0.2,1.7-0.7,2.5
			c-0.5,0.8-1.1,1.4-2,1.9c-0.9,0.5-2,0.7-3.2,0.7C260.3,133.3,259.2,133.1,258.3,132.7z"/>
		<path class="st1" d="M297.4,115.8c1.5,0.7,2.6,1.8,3.4,3.2c0.8,1.4,1.2,3.1,1.2,5c0,1.9-0.4,3.5-1.2,4.9c-0.8,1.4-1.9,2.4-3.4,3.2
			c-1.5,0.7-3.2,1.1-5.3,1.1h-5.5v-18.5h5.5C294.2,114.7,296,115,297.4,115.8z M298,129.6c1.3-1.4,2-3.3,2-5.7c0-2.4-0.7-4.3-2-5.7
			c-1.3-1.4-3.3-2.1-5.9-2.1h-3.6v15.5h3.6C294.7,131.7,296.7,131,298,129.6z"/>
		<path class="st1" d="M311.2,116.1v7h7v1.5h-7v7.1h7.8v1.5h-9.7v-18.5h9.7v1.5H311.2z"/>
		<path class="st1" d="M340.7,132.7c-0.9-0.4-1.7-1-2.2-1.8c-0.5-0.8-0.8-1.6-0.8-2.5h2c0.1,0.9,0.5,1.7,1.2,2.4s1.7,1,3.1,1
			c1.3,0,2.2-0.3,3-1c0.7-0.7,1.1-1.5,1.1-2.5c0-0.8-0.2-1.4-0.6-1.9c-0.4-0.5-0.9-0.8-1.5-1.1c-0.6-0.2-1.4-0.5-2.5-0.8
			c-1.2-0.3-2.2-0.7-2.9-1s-1.3-0.8-1.9-1.5c-0.5-0.7-0.8-1.6-0.8-2.7c0-1,0.2-1.8,0.7-2.6c0.5-0.7,1.2-1.3,2.1-1.8s1.9-0.6,3.1-0.6
			c1.7,0,3.1,0.4,4.1,1.3c1,0.8,1.7,1.9,1.8,3.2h-2c-0.1-0.8-0.5-1.5-1.2-2.1c-0.7-0.6-1.7-0.9-2.9-0.9c-1.1,0-2,0.3-2.8,0.9
			c-0.7,0.6-1.1,1.4-1.1,2.5c0,0.8,0.2,1.4,0.6,1.9c0.4,0.5,0.9,0.8,1.5,1.1c0.6,0.2,1.4,0.5,2.5,0.8c1.2,0.3,2.2,0.7,2.9,1
			c0.7,0.3,1.4,0.8,1.9,1.5c0.5,0.7,0.8,1.6,0.8,2.7c0,0.9-0.2,1.7-0.7,2.5c-0.5,0.8-1.1,1.4-2,1.9c-0.9,0.5-2,0.7-3.2,0.7
			C342.7,133.3,341.7,133.1,340.7,132.7z"/>
		<path class="st1" d="M359.3,116.1v7h7v1.5h-7v7.1h7.8v1.5h-9.7v-18.5h9.7v1.5H359.3z"/>
		<path class="st1" d="M374.4,119c0.8-1.4,1.9-2.6,3.3-3.4c1.4-0.8,2.9-1.2,4.7-1.2c2,0,3.7,0.5,5.2,1.5c1.5,1,2.6,2.4,3.2,4.1h-2.2
			c-0.5-1.2-1.3-2.2-2.4-2.9c-1.1-0.7-2.4-1-3.8-1c-1.4,0-2.6,0.3-3.7,1c-1.1,0.6-2,1.5-2.6,2.7c-0.6,1.2-1,2.5-1,4.1
			c0,1.6,0.3,2.9,1,4.1c0.6,1.2,1.5,2.1,2.6,2.7s2.3,1,3.7,1c1.3,0,2.4-0.3,3.5-0.8c1-0.6,1.9-1.4,2.5-2.4c0.6-1,1-2.2,1.1-3.6h-7.8
			v-1.5h9.7v1.3c-0.1,1.6-0.5,3.1-1.3,4.4c-0.8,1.3-1.9,2.4-3.2,3.1c-1.3,0.8-2.8,1.1-4.5,1.1c-1.7,0-3.3-0.4-4.7-1.2
			c-1.4-0.8-2.5-1.9-3.3-3.4c-0.8-1.4-1.2-3.1-1.2-4.9C373.2,122.1,373.6,120.5,374.4,119z"/>
		<path class="st1" d="M400.4,114.7v11.6c0,1.8,0.4,3.2,1.3,4.1c0.9,0.9,2.1,1.3,3.6,1.3s2.7-0.4,3.6-1.3c0.9-0.9,1.3-2.2,1.3-4.1
			v-11.6h1.9v11.6c0,2.3-0.6,4.1-1.9,5.3c-1.2,1.2-2.9,1.8-4.9,1.8s-3.6-0.6-4.9-1.8c-1.2-1.2-1.9-2.9-1.9-5.3v-11.6H400.4z"/>
		<path class="st1" d="M430,133.2l-4.6-7.7H422v7.7h-1.9v-18.5h5.6c2.1,0,3.6,0.5,4.7,1.5c1.1,1,1.6,2.3,1.6,3.9
			c0,1.3-0.4,2.5-1.2,3.4c-0.8,0.9-1.9,1.6-3.4,1.8l4.8,7.9H430z M422,123.9h3.7c1.4,0,2.5-0.4,3.3-1.1c0.7-0.7,1.1-1.7,1.1-2.9
			c0-1.2-0.4-2.2-1.1-2.9c-0.7-0.7-1.8-1-3.3-1H422V123.9z"/>
		<path class="st1" d="M442.9,132.1c-1.4-0.8-2.5-1.9-3.3-3.4c-0.8-1.4-1.2-3.1-1.2-4.9c0-1.8,0.4-3.4,1.2-4.9
			c0.8-1.4,1.9-2.6,3.3-3.4c1.4-0.8,2.9-1.2,4.7-1.2c1.7,0,3.3,0.4,4.7,1.2c1.4,0.8,2.5,1.9,3.3,3.4c0.8,1.4,1.2,3.1,1.2,4.9
			c0,1.8-0.4,3.4-1.2,4.9c-0.8,1.4-1.9,2.6-3.3,3.4c-1.4,0.8-3,1.2-4.7,1.2C445.8,133.3,444.3,132.9,442.9,132.1z M451.3,130.7
			c1.1-0.6,2-1.5,2.6-2.7c0.6-1.2,1-2.5,1-4.1c0-1.6-0.3-2.9-1-4.1c-0.6-1.2-1.5-2.1-2.6-2.7c-1.1-0.6-2.3-1-3.7-1
			c-1.4,0-2.6,0.3-3.7,1c-1.1,0.6-2,1.5-2.6,2.7c-0.6,1.2-1,2.5-1,4.1c0,1.6,0.3,2.9,1,4.1c0.6,1.2,1.5,2.1,2.6,2.7s2.3,1,3.7,1
			C448.9,131.7,450.2,131.4,451.3,130.7z"/>
		<path class="st1" d="M466.1,132.7c-0.9-0.4-1.7-1-2.2-1.8c-0.5-0.8-0.8-1.6-0.8-2.5h2c0.1,0.9,0.5,1.7,1.2,2.4
			c0.7,0.7,1.7,1,3.1,1c1.3,0,2.2-0.3,3-1c0.7-0.7,1.1-1.5,1.1-2.5c0-0.8-0.2-1.4-0.6-1.9c-0.4-0.5-0.9-0.8-1.5-1.1
			c-0.6-0.2-1.4-0.5-2.5-0.8c-1.2-0.3-2.2-0.7-2.9-1s-1.3-0.8-1.9-1.5c-0.5-0.7-0.8-1.6-0.8-2.7c0-1,0.2-1.8,0.7-2.6
			c0.5-0.7,1.2-1.3,2.1-1.8c0.9-0.4,1.9-0.6,3.1-0.6c1.7,0,3.1,0.4,4.1,1.3c1,0.8,1.7,1.9,1.8,3.2h-2c-0.1-0.8-0.5-1.5-1.2-2.1
			c-0.7-0.6-1.7-0.9-2.9-0.9c-1.1,0-2,0.3-2.8,0.9c-0.7,0.6-1.1,1.4-1.1,2.5c0,0.8,0.2,1.4,0.6,1.9c0.4,0.5,0.9,0.8,1.5,1.1
			c0.6,0.2,1.4,0.5,2.5,0.8c1.2,0.3,2.2,0.7,2.9,1c0.7,0.3,1.4,0.8,1.9,1.5c0.5,0.7,0.8,1.6,0.8,2.7c0,0.9-0.2,1.7-0.7,2.5
			c-0.5,0.8-1.1,1.4-2,1.9c-0.9,0.5-2,0.7-3.2,0.7C468.1,133.3,467,133.1,466.1,132.7z"/>
	</g>
</g>
</svg>
